<svg xmlns="http://www.w3.org/2000/svg" viewBox="0 0 337 336" fill="none">
  <path d="M168.31 318.62C251.324 318.62 318.62 251.324 318.62 168.31C318.62 85.2961 251.324 18 168.31 18C85.2961 18 18 85.2961 18 168.31C18 251.324 85.2961 318.62 168.31 318.62Z" fill="#E03131"/>
  <path fill-rule="evenodd" clip-rule="evenodd" d="M170.298 52.8348C184.891 52.8348 197.791 58.2349 205.459 66.4439L209.15 61.1013C200.211 52.1378 186.132 46.3596 170.298 46.3596C154.437 46.3596 140.34 52.1552 131.4 61.1414L135.09 66.491C142.751 58.2558 155.675 52.8348 170.298 52.8348ZM194.845 73.6016C188.469 68.7033 179.893 66.0042 170.697 66.0042H170.699C161.503 66.0042 152.927 68.7033 146.549 73.6016C145.1 74.7056 143.764 75.9518 142.56 77.3218L138.822 71.9009C146.031 64.3958 157.623 59.5307 170.699 59.5307C183.465 59.5307 194.819 64.171 202.06 71.3746L198.341 76.7695C197.308 75.6577 196.141 74.5983 194.845 73.6016ZM170.298 79.7357C178.713 79.7357 186.334 82.7799 191.032 87.361L194.746 81.987C188.879 76.6514 180.104 73.2605 170.298 73.2605C160.466 73.2605 151.67 76.6671 145.804 82.0271L149.514 87.4098C154.208 82.8008 161.855 79.7357 170.298 79.7357ZM124.63 179.962V223.161C126.721 225.982 127.996 228.716 127.996 232.13C127.996 236.382 126.102 240.198 123.128 242.742L119.42 238.98C121.545 237.357 122.79 234.825 122.783 232.141C122.783 227.418 119.014 223.588 114.365 223.588C109.718 223.588 105.95 227.418 105.95 232.142C105.945 234.806 107.171 237.321 109.267 238.949L105.564 242.709C102.614 240.165 100.671 236.373 100.671 232.142C100.671 228.725 101.715 225.58 103.795 223.161V156.079C104.142 153.495 106.108 151.406 108.64 151.406L229.822 151.422C232.357 151.422 234.356 153.495 234.704 156.079V223.194C236.436 225.611 237.829 228.739 237.829 232.158C237.82 236.226 236.044 240.086 232.966 242.725L229.244 238.964C231.338 237.336 232.561 234.821 232.552 232.158C232.552 227.436 228.78 223.606 224.131 223.606C219.483 223.606 215.712 227.434 215.712 232.158C215.712 234.956 217.032 237.438 219.074 238.999L215.368 242.763C212.273 240.112 210.493 236.227 210.498 232.139C210.498 228.723 211.844 225.982 213.869 223.161V180.318H207.966V271.02L211.439 273.348V280.806H170.813V273.348L175.325 271.109V243.078H163.52L163.529 271.02L167.692 273.348V280.806H126.714V273.348L130.88 271.025V179.962H124.63ZM138.848 94.286H200.426C202.96 94.286 205.189 96.398 205.189 98.9734V139.762C205.189 142.322 202.96 144.354 200.426 144.354H138.849C136.324 144.354 134.354 142.322 134.354 139.762V98.9734C134.354 96.398 136.324 94.286 138.848 94.286ZM153.952 124.222C149.629 124.222 146.118 120.646 146.118 116.264C146.118 111.86 149.629 108.295 153.952 108.295C158.281 108.295 161.79 111.859 161.79 116.264C161.79 120.646 158.281 124.22 153.952 124.22V124.222ZM177.572 116.264C177.572 120.646 181.086 124.222 185.425 124.222V124.22C189.756 124.22 193.265 120.646 193.265 116.264C193.265 111.859 189.756 108.295 185.425 108.295C181.088 108.295 177.572 111.86 177.572 116.264ZM157.967 116.265C157.975 118.504 156.178 120.326 153.952 120.335C151.746 120.335 149.946 118.506 149.946 116.265C149.946 114 151.747 112.184 153.952 112.184C155.023 112.187 156.049 112.62 156.803 113.385C157.556 114.151 157.975 115.187 157.967 116.265ZM181.415 116.265C181.407 118.502 183.201 120.324 185.425 120.335C187.652 120.323 189.451 118.505 189.453 116.265C189.459 114.02 187.657 112.194 185.425 112.184C183.21 112.184 181.415 114 181.415 116.265Z" fill="white"/>
</svg>
